<?xml version="1.0" encoding="utf-8"?>
<!-- Generator: Adobe Illustrator 24.3.0, SVG Export Plug-In . SVG Version: 6.00 Build 0)  -->
<svg version="1.1" id="Layer_1" xmlns="http://www.w3.org/2000/svg" xmlns:xlink="http://www.w3.org/1999/xlink" x="0px" y="0px"
	 viewBox="0 0 100 100" style="enable-background:new 0 0 100 100;" xml:space="preserve">
<style type="text/css">
	.st0{fill:url(#SVGID_1_);}
	.st1{fill:#FFFFFF;}
</style>
<g>
	<linearGradient id="SVGID_1_" gradientUnits="userSpaceOnUse" x1="71.917" y1="90.8109" x2="20.5895" y2="-4.7643">
		<stop  offset="0" style="stop-color:#8585FE"/>
		<stop  offset="1" style="stop-color:#0AF6F1"/>
	</linearGradient>
	<circle class="st0" cx="50" cy="50" r="50"/>
	<g>
		<g>
			<path class="st1" d="M28,10.6c2.3-1.3,3.5-1.8,6.1-2.7c-5.8,18.9-6.3,38.2-4.9,57.7c0.6,5.5,0.9,10,0.8,13.6
				c0,3.6-0.3,5.9-0.9,7.2c-0.6,1.2-1.6,1.2-3,0.3C23.5,85,20.6,82,17.1,78c-3.5-4-7.3-8.8-9.4-15.4c2.7,0.7,4.1,1,7,1.6
				c0.8,3.4,1.8,5.8,2.7,7.4c0.9,1.6,2,2.6,3,2.9c1,0.3,1.4-0.3,1.5-2.1c0.1-1.7-0.3-4.4-0.9-8C19.3,46.2,19.6,27.5,28,10.6z"/>
			<path class="st1" d="M55.1,77.8c-4.6,0.2-7,0.2-11.6-0.1C43.2,84,43,87,43.1,92.3c-2.9-0.5-4.4-0.8-7.1-1.7
				c-3.3-28.5,4.3-57.9,10.2-85.5c2.6-0.2,4-0.3,6.7-0.1c5.3,28.1,12.7,57.4,10.5,86.2c-2.8,0.8-4.3,1.1-7.2,1.4
				C55.9,87.2,55.7,84.2,55.1,77.8z M45.1,61.1c3.3,0.1,5,0.1,8.3,0c-1.3-11-2.7-22-4.1-33C47.8,39.1,46.4,50.1,45.1,61.1z"/>
			<path class="st1" d="M85.7,66.9c0.7-2.5,0.7-4.5,0.2-5.9c-0.5-1.4-1.7-2.8-3.7-4.4s-3.6-3.3-5-5c-4.4-5.6-7-14.1-8.1-23.5
				c-0.5-4.7-0.6-8.6-0.4-11.6c0.3-3,0.9-5,1.8-5.9c1-0.9,2.2-0.8,3.9,0.3c1.7,1,3.5,2.8,5.8,5.2c2.3,2.3,4.7,5.1,7.2,8.3
				c2.4,3.2,4.6,6.6,5.9,10.6c-2.7-0.7-4.1-1.1-7-1.7c-0.7-3-1.8-5.3-3.1-7.1c-1.2-1.8-2.5-2.9-3.7-3.3c-1.2-0.4-2,0-2.4,1.2
				c-0.4,1.2-0.4,3.1,0,5.4c0.4,2.1,1.1,4,2.2,5.9c1.1,1.8,3,3.8,5.4,5.8c2.4,2,4.4,4,5.8,6c3.5,4.9,4.7,10.9,2,17.9
				c-2.1,5.6-5.7,9.8-9.1,13.6c-3.4,3.8-6.3,6.8-9,8.4c-1.9,1.2-3.1,1.2-4.2-0.1c-1-1.3-1.7-3.8-2-7.6c-0.3-3.8-0.2-8.6,0.2-14.4
				c3.4-0.3,5.1-0.4,8.3-0.8c-0.6,4.5-0.8,7.5-0.4,9.3c0.4,1.7,1.4,2.3,3.2,1.7c1.1-0.4,2.2-1.3,3.3-2.7
				C84.2,71,85.1,69.2,85.7,66.9z"/>
		</g>
	</g>
</g>
</svg>
